<svg width="32" height="32" xmlns="http://www.w3.org/2000/svg">

 <title/>
 <g>
  <title>background</title>
  <rect fill="none" id="canvas_background" height="402" width="582" y="-1" x="-1"/>
 </g>
 <g>
  <title>Layer 1</title>
  <path fill="#ffffff" id="svg_1" d="m2,28a0.94,0.94 0 0 1 -0.58,-0.19a1,1 0 0 1 -0.42,-0.81l0,-19a1,1 0 0 1 0.68,-1l9,-3a1.06,1.06 0 0 1 0.61,0l9.71,3l8.7,-2.9a1,1 0 0 1 0.9,0.14a1,1 0 0 1 0.4,0.76l0,19a1,1 0 0 1 -0.68,0.95l-9,3a1.06,1.06 0 0 1 -0.61,0l-9.71,-2.9l-8.68,2.95a1.19,1.19 0 0 1 -0.32,0zm9,-5a1,1 0 0 1 0.29,0l9.71,3l8,-2.67l0,-16.94l-7.68,2.61a1.06,1.06 0 0 1 -0.61,0l-9.71,-2.95l-8,2.67l0,16.89l7.68,-2.56a1.19,1.19 0 0 1 0.32,-0.05zm19,1l0,0z" class="cls-1"/>
  <path fill="#ffffff" id="svg_2" d="m21,27a1,1 0 0 1 -1,-1l0,-18a1,1 0 0 1 2,0l0,18a1,1 0 0 1 -1,1z" class="cls-1"/>
  <path fill="#ffffff" id="svg_3" d="m10.951923,24a1,1 0 0 1 -1,-1l0,-18a1,1 0 0 1 2,0l0,18a1,1 0 0 1 -1,1z" class="cls-1"/>
 </g>
</svg>